<svg width="163" height="65" viewBox="0 0 163 65" fill="none" xmlns="http://www.w3.org/2000/svg">
<path d="M0.800001 65V0.209995H50.96C57.8533 0.209995 62.8767 1.60333 66.03 4.39C69.1833 7.10333 70.76 10.4033 70.76 14.29V17.59C70.76 20.5967 70.1 23.09 68.78 25.07C67.5333 26.9767 66.1767 28.3333 64.71 29.14C67.9367 30.1667 70.5033 31.9633 72.41 34.53C74.3167 37.0233 75.27 40.3233 75.27 44.43V46.41C75.27 48.61 75.0133 50.81 74.5 53.01C73.9867 55.21 72.9967 57.2267 71.53 59.06C70.1367 60.82 68.12 62.25 65.48 63.35C62.9133 64.45 59.54 65 55.36 65H0.800001ZM22.25 25.18H44.25C46.1567 25.18 47.4767 24.7767 48.21 23.97C48.9433 23.1633 49.31 22.0633 49.31 20.67V19.57C49.31 18.03 48.9433 16.93 48.21 16.27C47.4767 15.61 45.8267 15.28 43.26 15.28H22.25V25.18ZM22.25 49.93H48.76C50.6667 49.93 51.9867 49.6 52.72 48.94C53.4533 48.2067 53.82 47.07 53.82 45.53V43.55C53.82 42.1567 53.3433 41.0933 52.39 40.36C51.4367 39.5533 49.7867 39.15 47.44 39.15H22.25V49.93ZM103.142 65C98.1554 65 94.4888 64.78 92.1421 64.34C89.7954 63.9 88.6221 63.3867 88.6221 62.8L95.2221 48.61C96.9088 48.9033 100.392 49.1967 105.672 49.49C110.952 49.71 117.809 49.82 126.242 49.82H134.932C137.499 49.82 139.222 49.4533 140.102 48.72C140.982 47.9867 141.422 46.9233 141.422 45.53V44.43C141.422 42.67 140.982 41.46 140.102 40.8C139.222 40.14 137.499 39.81 134.932 39.81H109.742C102.335 39.81 96.9454 38.4533 93.5721 35.74C90.1988 32.9533 88.5121 28.4433 88.5121 22.21V18.25C88.5121 15.0233 89.0988 12.0533 90.2721 9.34C91.5188 6.62666 93.6088 4.46333 96.5421 2.85C99.4754 1.16333 103.509 0.32 108.642 0.32H145.162C149.635 0.32 153.339 0.576666 156.272 1.09C159.279 1.60333 160.782 2.15333 160.782 2.74L157.482 16.38C155.429 16.16 151.542 15.94 145.822 15.72C140.175 15.4267 132.989 15.28 124.262 15.28L116.342 15.17C114.069 15.17 112.455 15.5 111.502 16.16C110.549 16.7467 110.035 17.8833 109.962 19.57V20.34C109.962 22.0267 110.475 23.2 111.502 23.86C112.529 24.52 114.179 24.85 116.452 24.85H140.652C145.345 24.85 149.342 25.3267 152.642 26.28C155.942 27.2333 158.472 28.9933 160.232 31.56C161.992 34.0533 162.872 37.7567 162.872 42.67V46.63C162.872 52.13 161.442 56.5667 158.582 59.94C155.795 63.3133 150.919 65 143.952 65H103.142Z" fill="#121212"/>
</svg>
